<?xml version="1.0" encoding="utf-8"?>
<!-- Generator: Adobe Illustrator 19.1.0, SVG Export Plug-In . SVG Version: 6.00 Build 0)  -->
<svg version="1.1" id="Capa_1" xmlns="http://www.w3.org/2000/svg" xmlns:xlink="http://www.w3.org/1999/xlink" x="0px" y="0px"
	 viewBox="0 0 126 126" style="enable-background:new 0 0 126 126;" xml:space="preserve">
<g>
	<g>
		<path d="M120.5,44.6c0,4.9-0.9,9.6-2.5,13.8c-1.7,4.2-4,8.1-6.9,11.3c-2.9,3.2-44.2,44.1-48,45.9c-3.9-1.8-45.1-42.7-48-45.9
			C12,66.5,9.7,62.6,8,58.4c-1.6-4.3-2.5-8.9-2.5-13.8c0-4.9,0.9-9.6,2.5-13.8c1.6-4.3,4-8.1,6.9-11.3c2.9-3.2,6.4-5.8,10.3-7.6
			c3.9-1.8,8.1-2.8,12.6-2.8c4.5,0,8.7,1.2,12.6,3.4c3.9,2.2,7.4,5.3,10.3,9c0.8,1,1.6,2.1,2.3,3.2c0.7-1.1,1.5-2.2,2.3-3.2
			c2.9-3.7,6.4-6.8,10.3-9c3.9-2.2,8.1-3.4,12.6-3.4c4.5,0,8.7,1,12.6,2.8c3.9,1.8,7.4,4.4,10.3,7.6c2.9,3.2,5.3,7,6.9,11.3
			C119.6,35,120.5,39.7,120.5,44.6z"/>
		<path d="M63,121.6l-2.3-1.1c-5.7-2.7-49.4-46.7-49.8-47.2c-3.4-3.8-6.1-8.2-8-13C1,55.3,0,50,0,44.6c0-5.5,1-10.8,2.9-15.8
			c1.9-4.8,4.5-9.2,8-13c3.5-3.8,7.5-6.8,12-8.9c4.7-2.2,9.7-3.3,14.9-3.3c5.3,0,10.4,1.4,15.3,4.1c3.5,2,6.9,4.7,9.9,8
			c3-3.3,6.3-6,9.9-8c4.9-2.7,10-4.1,15.2-4.1c5.2,0,10.2,1.1,14.9,3.3c4.5,2.1,8.6,5.1,12,8.9c3.4,3.8,6.1,8.2,8,13
			c1.9,5,2.9,10.3,2.9,15.8c0,5.4-1,10.8-2.9,15.8c-1.9,4.9-4.6,9.2-8,13c-0.4,0.4-44.3,44.6-49.8,47.2L63,121.6z M37.8,14.5
			c-3.6,0-7,0.8-10.3,2.3c-3.2,1.5-6,3.6-8.5,6.3c-2.5,2.8-4.5,6-5.9,9.6c-1.5,3.8-2.2,7.8-2.2,11.8c0,4.1,0.7,8.1,2.2,11.9
			c1.4,3.6,3.4,6.8,5.9,9.6c3.7,4,34.2,34,44,42.6C72.8,100,103.3,70,107,66c2.5-2.7,4.5-6,5.9-9.6c1.4-3.8,2.2-7.7,2.2-11.8
			c0-4.1-0.7-8.1-2.2-11.8c-1.4-3.6-3.4-6.8-5.9-9.6c-2.5-2.7-5.3-4.8-8.5-6.3c-3.3-1.5-6.7-2.3-10.3-2.3c-3.4,0-6.7,0.9-9.9,2.7
			c-3.1,1.7-6.1,4.4-8.7,7.6c-0.7,0.9-1.4,1.9-2,2.8l-4.6,7.2l-4.6-7.2c-0.6-0.9-1.2-1.8-2-2.7c-2.5-3.2-5.5-5.8-8.7-7.6
			C44.5,15.4,41.2,14.5,37.8,14.5z"/>
	</g>
</g>
</svg>
