<?xml version="1.0" encoding="utf-8"?>
<!-- Generator: Adobe Illustrator 19.2.1, SVG Export Plug-In . SVG Version: 6.00 Build 0)  -->
<svg version="1.1" id="Capa_1" xmlns:sketch="http://www.bohemiancoding.com/sketch/ns"
	 xmlns="http://www.w3.org/2000/svg" xmlns:xlink="http://www.w3.org/1999/xlink" x="0px" y="0px" viewBox="0 0 19 22"
	 style="enable-background:new 0 0 19 22;" xml:space="preserve">
<title>trash_delete</title>
<description>Created with Sketch (http://www.bohemiancoding.com/sketch)</description>
<g sketch:type="MSPage">
	<path sketch:type="MSShapeGroup" d="M0.5,1C0.5,1,0,1,0,2c0,1,0.5,1,0.5,1h18c0,0,0.5,0,0.5-1s-0.5-1-0.5-1H0.5L0.5,1z M1,4h17
		l-2,18H3L1,4z M8,0C7,0,7,1,7,1h5c0,0,0-1-1-1H8L8,0z M6,20h1L6,4H5L6,20z M13,4l-1,16h1l1-16H13L13,4z M9,4v16h1V4H9L9,4z"/>
</g>
</svg>
